<?xml version="1.0" encoding="utf-8"?>
<svg width="33px" height="29px" viewBox="0 0 33 29" version="1.1" xmlns:xlink="http://www.w3.org/1999/xlink" xmlns="http://www.w3.org/2000/svg">
  <desc>Created with Lunacy</desc>
  <defs>
    <linearGradient x1="0.5" y1="0" x2="0.5" y2="1" id="gradient_1">
      <stop offset="0" stop-color="#005BEA" />
      <stop offset="1" stop-color="#00C6FB" />
    </linearGradient>
  </defs>
  <g id="Group">
    <g fill="url(#gradient_1)" stroke="none" id="ALERT" transform="translate(4 8)">
      <path d="M5.95459 9.15088L4.80762 9.15088L4.24072 7.54688L1.76221 7.54688L1.21729 9.15088L0.074707 9.15088L2.43457 2.84912L3.6123 2.84912L5.95459 9.15088ZM10.3096 9.15088L6.82031 9.15088L6.82031 2.84912L7.86621 2.84912L7.86621 8.26758L10.3096 8.26758L10.3096 9.15088ZM11.2192 9.15088L14.7568 9.15088L14.7568 8.26758L12.2651 8.26758L12.2651 6.4043L14.4316 6.4043L14.4316 5.521L12.2651 5.521L12.2651 3.73682L14.6162 3.73682L14.6162 2.84912L11.2192 2.84912L11.2192 9.15088ZM20.7466 9.15088L19.5249 9.15088L18.5186 7.46338Q18.3823 7.23047 18.2527 7.06567Q18.123 6.90088 17.989 6.79541Q17.855 6.68994 17.6968 6.6416Q17.5386 6.59326 17.3408 6.59326L16.9189 6.59326L16.9189 9.15088L15.8774 9.15088L15.8774 2.84912L17.9517 2.84912Q18.3955 2.84912 18.769 2.95459Q19.1426 3.06006 19.4194 3.27319Q19.6963 3.48633 19.8523 3.80493Q20.0083 4.12354 20.0083 4.5498Q20.0083 4.88379 19.9094 5.16284Q19.8105 5.44189 19.6282 5.65942Q19.4458 5.87695 19.1887 6.03076Q18.9316 6.18457 18.6108 6.26807L18.6108 6.28564Q18.7822 6.38232 18.9097 6.49878Q19.0371 6.61523 19.1514 6.73828Q19.2656 6.86133 19.3777 7.01733Q19.4897 7.17334 19.626 7.37988L20.7466 9.15088ZM23.7129 3.73682L25.5234 3.73682L25.5234 2.84912L20.8608 2.84912L20.8608 3.73682L22.667 3.73682L22.667 9.15088L23.7129 9.15088L23.7129 3.73682ZM16.9189 3.69727L16.9189 5.74512L17.7891 5.74512Q18.0308 5.74512 18.2351 5.67041Q18.4395 5.5957 18.5889 5.45508Q18.7383 5.31445 18.8218 5.1123Q18.9053 4.91016 18.9053 4.65967Q18.9053 4.20703 18.6196 3.95215Q18.334 3.69727 17.7979 3.69727L16.9189 3.69727ZM3.96387 6.69434L3.08936 4.18066Q3.0498 4.05762 3.00586 3.78516L2.98828 3.78516Q2.94873 4.03564 2.90039 4.18066L2.03467 6.69434L3.96387 6.69434Z" />
    </g>
    <g id="calertLogo" opacity="0.78">
      <g fill="url(#gradient_1)" stroke="none" id="C">
        <path d="M10.032 23.044Q7.536 23.044 5.532 21.94Q3.528 20.836 2.388 18.88Q1.248 16.924 1.248 14.5Q1.248 12.076 2.388 10.12Q3.528 8.164 5.544 7.06Q7.56 5.956 10.056 5.956Q11.928 5.956 13.512 6.58Q15.096 7.204 16.2 8.404L15.072 9.532Q13.104 7.54 10.104 7.54Q8.112 7.54 6.48 8.452Q4.848 9.364 3.924 10.948Q3 12.532 3 14.5Q3 16.468 3.924 18.052Q4.848 19.636 6.48 20.548Q8.112 21.46 10.104 21.46Q13.128 21.46 15.072 19.444L16.2 20.572Q15.096 21.772 13.5 22.408Q11.904 23.044 10.032 23.044Z" />
      </g>
      <g id="Group" transform="translate(30.17183 7.999958)">
        <g id="Group">
          <path d="M0.984375 0C0.440704 0 0 0.530472 0 1.18488L0 8.81512C0 9.46953 0.440704 10 0.984375 10C1.52805 10 1.96875 9.46953 1.96875 8.81512L1.96875 1.18488C1.96875 0.530472 1.52804 0 0.984375 0L0.984375 0Z" id="Shape" fill="url(#gradient_1)" stroke="none" />
        </g>
      </g>
      <g id="Group" transform="translate(30.00003 19.00003)">
        <g id="Group">
          <path d="M0 1.13906C0 0.509976 0.509976 0 1.13906 0C1.76815 0 2.27812 0.509976 2.27812 1.13906C2.27812 1.76815 1.76815 2.27812 1.13906 2.27812C0.509976 2.27812 0 1.76815 0 1.13906Z" id="Circle" fill="url(#gradient_1)" stroke="none" />
        </g>
      </g>
    </g>
  </g>
</svg>